<svg width="24" height="24" viewBox="0 0 24 24" fill="none" xmlns="http://www.w3.org/2000/svg">
<path d="M12 22.5C14.7848 22.5 17.4555 21.3938 19.4246 19.4246C21.3938 17.4555 22.5 14.7848 22.5 12C22.5 9.21523 21.3938 6.54451 19.4246 4.57538C17.4555 2.60625 14.7848 1.5 12 1.5C9.21523 1.5 6.54451 2.60625 4.57538 4.57538C2.60625 6.54451 1.5 9.21523 1.5 12C1.5 14.7848 2.60625 17.4555 4.57538 19.4246C6.54451 21.3938 9.21523 22.5 12 22.5ZM12 24C8.8174 24 5.76515 22.7357 3.51472 20.4853C1.26428 18.2348 0 15.1826 0 12C0 8.8174 1.26428 5.76516 3.51472 3.51472C5.76515 1.26428 8.8174 0 12 0C15.1826 0 18.2348 1.26428 20.4853 3.51472C22.7357 5.76516 24 8.8174 24 12C24 15.1826 22.7357 18.2348 20.4853 20.4853C18.2348 22.7357 15.1826 24 12 24Z" fill="#00E1FF"/>
<path d="M6.98551 17.6471C7.02301 17.6471 7.0605 17.6433 7.098 17.6377L10.2514 17.0846C10.2889 17.0771 10.3246 17.0602 10.3508 17.0321L18.2981 9.08394C18.3155 9.06659 18.3293 9.04599 18.3387 9.02331C18.3481 9.00062 18.353 8.97631 18.353 8.95175C18.353 8.9272 18.3481 8.90288 18.3387 8.8802C18.3293 8.85751 18.3155 8.83691 18.2981 8.81956L15.1822 5.70144C15.1466 5.66581 15.0997 5.64706 15.0491 5.64706C14.9985 5.64706 14.9516 5.66581 14.916 5.70144L6.96864 13.6496C6.94052 13.6777 6.92364 13.7114 6.91614 13.7489L6.36307 16.9027C6.34483 17.0031 6.35135 17.1065 6.38206 17.2039C6.41277 17.3012 6.46674 17.3896 6.53931 17.4614C6.66304 17.5814 6.81865 17.6471 6.98551 17.6471ZM8.24914 14.3771L15.0491 7.57831L16.4233 8.95269L9.62337 15.7514L7.95666 16.0458L8.24914 14.3771Z" fill="#00E1FF"/>
</svg>
