<svg width="26" height="20" viewBox="0 0 26 20" fill="none" xmlns="http://www.w3.org/2000/svg">
<path d="M0.00693354 15.1679V12.468C0.0278629 12.3633 0.0697216 12.2587 0.090651 12.154C0.341803 8.44953 1.61849 5.10083 3.60678 2.00328C3.77422 1.75213 4.02537 1.52191 4.29745 1.41726C5.51136 0.977746 6.72526 0.580088 7.96009 0.224289C9.04842 -0.0687222 9.04842 -0.0268635 9.59258 0.998675C9.6763 1.14518 9.90652 1.27076 10.074 1.27076C11.5181 1.27076 12.9831 1.14518 14.4273 1.2289C15.2016 1.27076 15.7458 1.2289 15.9342 0.391724C16.0179 0.056854 16.2272 -0.0687222 16.6039 0.0359246C18.048 0.496371 19.5131 0.935887 20.9572 1.39633C21.1874 1.48005 21.4177 1.66841 21.5432 1.87771C22.9874 4.05436 24.0757 6.39845 24.6408 8.95183C24.8919 10.1029 25.0175 11.2541 25.2059 12.4261V15.0004C25.164 15.2097 25.164 15.4399 25.1012 15.6492C25.0594 15.8167 24.9966 16.026 24.871 16.1097C23.0711 17.4073 21.1247 18.4119 19.0108 19.0816C18.8852 19.1235 18.655 19.0816 18.5922 18.9979C18.1527 18.3491 17.755 17.7003 17.3574 17.0515L19.4503 16.026C19.1713 15.705 18.8643 15.6143 18.5294 15.7539C14.5738 17.4073 10.6181 17.3864 6.6834 15.7539C6.28574 15.5864 6.01366 15.5864 5.76251 16.0469L7.85544 17.0724C7.49964 17.6584 7.14385 18.2026 6.82991 18.7677C6.62061 19.1444 6.39039 19.2281 5.9718 19.0816C4.29745 18.4956 2.70682 17.7422 1.19991 16.7794C0.613885 16.3818 -0.0767839 16.0678 0.00693354 15.1679ZM6.1811 10.5843C6.1811 11.7354 6.87176 12.74 7.85544 13.0331C9.02749 13.3889 10.1995 12.6563 10.5972 11.3587C11.0158 9.95644 10.2623 8.44953 9.00656 8.09373C7.5415 7.69607 6.1811 8.88904 6.1811 10.5634V10.5843ZM19.0736 10.7099C19.0736 8.86811 17.6922 7.67514 16.2063 8.11466C15.1179 8.4286 14.4482 9.60064 14.5738 10.9192C14.6993 12.0912 15.6412 13.0749 16.7295 13.1168C17.755 13.1796 18.7596 12.3215 19.0108 11.1703C19.0527 10.9611 19.0527 10.7727 19.0527 10.689L19.0736 10.7099Z" fill="#27343C"/>
</svg>
