<svg width="22" height="19" viewBox="0 0 22 19" fill="none" xmlns="http://www.w3.org/2000/svg">
<path d="M0.10407 8.55327C0.346401 8.16663 0.734574 7.97931 1.14271 7.82531C7.38398 5.47211 13.6258 3.12001 19.8682 0.76954C19.9957 0.721482 20.131 0.680524 20.2658 0.664687C20.9035 0.590415 21.3576 0.960679 21.3454 1.59745C21.3377 2.00758 21.2584 2.42044 21.1719 2.82401C20.4904 5.99965 19.8 9.17366 19.1112 12.3477C18.768 13.9281 18.4225 15.508 18.0781 17.0879C18.0726 17.1147 18.0671 17.1414 18.0598 17.1676C17.7327 18.3505 16.8643 18.2375 16.2238 17.7826C14.6822 16.6871 13.1533 15.5741 11.6189 14.4682C11.5635 14.4283 11.5075 14.3901 11.4409 14.3432C11.3916 14.3847 11.3433 14.4212 11.3001 14.4617C10.5088 15.2038 9.71745 15.9465 8.92669 16.6892C8.69767 16.9044 8.43371 17.0295 8.09045 17.0082C8.11873 16.586 8.14424 16.1743 8.17363 15.763C8.2374 14.8734 8.30284 13.9844 8.36772 13.0947C8.37493 12.9932 8.40543 12.8883 8.39101 12.79C8.31226 12.2581 8.63278 11.9583 8.99767 11.6377C11.8019 9.17693 14.5924 6.70086 17.3866 4.2297C17.4332 4.18875 17.4914 4.1538 17.5197 4.10246C17.5624 4.02546 17.5835 3.93699 17.614 3.85343C17.5264 3.82613 17.4282 3.76005 17.3528 3.77971C17.1759 3.82558 16.9962 3.89112 16.8415 3.98614C13.1794 6.23721 9.52004 8.4932 5.86123 10.7497C5.75864 10.8131 5.67047 10.848 5.53794 10.8071C3.98635 10.3243 2.432 9.85029 0.878198 9.37408C0.562114 9.27742 0.272094 9.14417 0.103516 8.84053V8.55437L0.10407 8.55327Z" fill="#27343C"/>
</svg>
