<svg width="22" height="25" viewBox="0 0 22 25" fill="none" xmlns="http://www.w3.org/2000/svg">
<path d="M22 0.0296912C22 0.23753 22 0.415677 22 0.593824C22 4.3943 22 8.16508 22 11.9656C22 12.2625 21.8483 12.6485 21.6055 12.886C19.1172 15.3504 16.629 17.785 14.1103 20.2197C13.8979 20.4276 13.5338 20.576 13.2303 20.576C12.3807 20.6354 11.531 20.576 10.7117 20.6057C10.3476 20.6057 9.92276 20.7838 9.64966 21.0511C8.31448 22.3278 7.00965 23.6639 5.67448 25L5.49241 24.9109V20.6057H0.0303448C0.0303448 20.3088 0 20.101 0 19.8634C0 14.9347 0 10.0059 0 5.10689C0 4.69121 0.121379 4.36461 0.424828 4.0677C1.69931 2.82067 2.94345 1.57363 4.21793 0.356295C4.4 0.178147 4.70345 0 4.94621 0C10.56 0 16.1738 0 21.7876 0C21.8179 0 21.8786 0 22.0303 0.0296912H22ZM20.149 1.78147H5.52276V15.2316H9.61931V18.2007L9.80138 18.2898C10.0138 18.0226 10.2262 17.7553 10.469 17.5178C11.2276 16.7755 11.8648 15.766 12.7752 15.38C13.7159 14.9941 14.9297 15.2613 15.9917 15.2019C16.2648 15.2019 16.5986 15.0534 16.811 14.8753C17.8124 13.9252 18.8138 12.9751 19.7545 11.9952C19.9669 11.7577 20.149 11.4014 20.149 11.0748C20.149 8.19477 20.149 5.31473 20.149 2.43468C20.149 2.22684 20.149 1.98931 20.149 1.78147Z" fill="#27343C"/>
<path d="M12.32 10.2435H10.5903V4.9585H12.32V10.2435Z" fill="#27343C"/>
<path d="M17.3572 10.2434H15.6276V4.98804H17.3572V10.2731V10.2434Z" fill="#27343C"/>
</svg>
