<svg width="43" height="36" viewBox="0 0 43 36" fill="none" xmlns="http://www.w3.org/2000/svg">
<path d="M0.00109646 15.8428C0.480251 15.0672 1.24777 14.6915 2.05477 14.3826C14.3955 9.66223 26.7372 4.94408 39.0801 0.229211C39.3323 0.13281 39.5998 0.0506506 39.8663 0.0188822C41.1272 -0.130101 42.0252 0.612622 42.0011 1.88993C41.9857 2.71262 41.829 3.54079 41.6579 4.35034C40.3104 10.7204 38.9453 17.0873 37.5835 23.4541C36.9047 26.6244 36.2216 29.7935 35.5407 32.9627C35.5298 33.0164 35.5188 33.0701 35.5046 33.1226C34.8576 35.4954 33.1406 35.2686 31.8742 34.3561C28.826 32.1586 25.8031 29.9261 22.7691 27.7078C22.6595 27.6278 22.5488 27.5511 22.4172 27.4569C22.3196 27.5402 22.2242 27.6136 22.1387 27.6946C20.574 29.1834 19.0094 30.6732 17.4458 32.163C16.993 32.5946 16.4711 32.8455 15.7924 32.8028C15.8483 31.956 15.8987 31.13 15.9568 30.3051C16.0829 28.5206 16.2123 26.7372 16.3406 24.9527C16.3548 24.7489 16.4151 24.5386 16.3866 24.3414C16.2309 23.2744 16.8647 22.673 17.5862 22.03C23.131 17.0938 28.6484 12.127 34.1735 7.17005C34.2656 7.0879 34.3807 7.01779 34.4366 6.91481C34.521 6.76035 34.5627 6.58289 34.623 6.41528C34.4498 6.36051 34.2557 6.22796 34.1066 6.2674C33.7568 6.35941 33.4015 6.49087 33.0956 6.68148C25.8546 11.197 18.619 15.7223 11.3846 20.2488C11.1817 20.3758 11.0074 20.446 10.7453 20.3638C7.67743 19.3954 4.60405 18.4445 1.53176 17.4893C0.906775 17.2954 0.333325 17.0281 0 16.419V15.845L0.00109646 15.8428Z" fill="#27343C"/>
</svg>
