<svg width="54" height="45" viewBox="0 0 54 45" fill="none" xmlns="http://www.w3.org/2000/svg">
<path d="M0.466228 20.7765C1.07116 19.7973 2.04016 19.3229 3.05899 18.9329C18.6391 12.9735 34.2206 7.0168 49.8035 1.06428C50.1219 0.942575 50.4596 0.838849 50.796 0.798741C52.388 0.61065 53.5217 1.54834 53.4912 3.16094C53.4718 4.19959 53.2739 5.24515 53.0579 6.2672C51.3567 14.3095 49.6332 22.3476 47.914 30.3857C47.0571 34.3882 46.1947 38.3892 45.335 42.3903C45.3212 42.4581 45.3073 42.5258 45.2893 42.5922C44.4726 45.5879 42.3048 45.3016 40.706 44.1495C36.8577 41.3752 33.0412 38.5566 29.2109 35.756C29.0725 35.655 28.9326 35.5582 28.7665 35.4393C28.6433 35.5444 28.5229 35.637 28.4149 35.7394C26.4395 37.6189 24.4642 39.4998 22.4902 41.3807C21.9185 41.9256 21.2596 42.2423 20.4027 42.1884C20.4733 41.1193 20.537 40.0765 20.6103 39.0351C20.7695 36.7822 20.9329 34.5306 21.0948 32.2777C21.1128 32.0204 21.189 31.7549 21.153 31.5059C20.9564 30.1589 21.7565 29.3996 22.6674 28.5878C29.6677 22.3559 36.6334 16.0853 43.6088 9.8271C43.7251 9.72337 43.8705 9.63486 43.9411 9.50486C44.0476 9.30985 44.1002 9.0858 44.1764 8.8742C43.9577 8.80505 43.7126 8.6377 43.5244 8.68749C43.0828 8.80366 42.6343 8.96963 42.2481 9.21027C33.1063 14.9111 23.9714 20.6243 14.8379 26.339C14.5818 26.4994 14.3617 26.5879 14.0308 26.4842C10.1576 25.2616 6.27745 24.0611 2.39869 22.8552C1.60965 22.6104 0.885666 22.2729 0.464844 21.5039V20.7792L0.466228 20.7765Z" fill="white"/>
</svg>
